<svg width="843" height="843" viewBox="0 0 843 843" fill="none" xmlns="http://www.w3.org/2000/svg">
<path d="M198.008 336.857C202.713 335.097 205.729 333.726 207.057 332.745C228.002 317.267 218.462 287.577 192.865 285.595" stroke="#7F5F0D" stroke-width="1.96295"/>
<path d="M110.608 285.516C105.22 302.407 105.044 320.859 110.687 337.671" stroke="#2C2106" stroke-opacity="0.753" stroke-width="1.96295"/>
<path d="M645.658 505.621C616.018 511.52 616.98 552.074 646.836 556.805" stroke="#7F5F0D" stroke-width="1.96295"/>
<path d="M731.793 556.609C732.578 553.305 733.333 549.971 734.06 546.608C736.936 533.309 736.033 519.794 732.195 506.74C732.008 506.112 732.097 505.827 731.479 505.238" stroke="#2C2106" stroke-opacity="0.753" stroke-width="1.96295"/>
<path d="M184.652 286.507C183.512 287.22 182.365 287.891 181.207 288.519C160.841 299.561 163.147 329.555 185.829 335.964C186.464 336.14 186.955 336.392 187.302 336.72" stroke="#D19B12" stroke-opacity="0.753" stroke-width="1.96295"/>
<path d="M656.523 556.108C678.95 547.608 682.091 519.666 660.548 507.839" stroke="#D19B12" stroke-opacity="0.753" stroke-width="1.96295"/>
<path d="M198.009 336.857C202.712 335.097 205.729 333.726 207.058 332.745C228.002 317.267 218.462 287.577 192.866 285.595C194.089 285.49 196.409 285.437 199.824 285.437C367.021 285.431 534.216 285.434 701.406 285.447C706.431 285.447 710.4 285.022 713.311 284.171C745.916 274.631 738.878 227.295 704.978 227.285C535.936 227.279 366.897 227.282 197.861 227.295C189.047 227.295 182.52 227.616 178.28 228.257C146.815 232.997 120.501 255.188 110.608 285.516C105.22 302.407 105.043 320.859 110.687 337.671C120.884 366.949 145.195 388.482 175.631 394.087C180.211 394.93 186.721 395.352 195.162 395.352C347.598 395.366 500.034 395.369 652.47 395.363C718.964 395.363 776.253 445.663 785.685 511.275C796.609 587.231 742.382 657.485 665.622 665.523C661.146 665.994 654.612 666.23 646.021 666.23C475.677 666.256 305.333 666.259 134.988 666.239C129.132 666.239 122.949 665.369 116.438 663.628C80.1138 653.882 55.1255 620.944 56.4014 583.187C57.7853 542.368 89.3986 509.096 130.149 505.641C132.688 505.425 139.228 505.317 149.769 505.317C315.069 505.268 480.368 505.238 645.658 505.621C616.018 511.52 616.98 552.074 646.836 556.805C478.029 556.818 309.226 556.818 140.425 556.805C135.073 556.805 131.042 557.211 128.334 558.022C100.882 566.266 101.088 605.574 128.54 613.524C131.857 614.486 137.998 614.967 146.962 614.967C313.001 614.967 479.043 614.967 645.089 614.967C656.209 614.967 666.838 614.349 676.025 611.296C703.408 602.195 721.997 583.966 731.793 556.609C732.577 553.305 733.333 549.971 734.059 546.608C736.935 533.309 736.033 519.794 732.195 506.74C732.008 506.112 732.097 505.827 731.478 505.238C731.655 505.069 731.665 504.761 731.508 504.316C721.212 475.352 697.274 453.593 666.809 448.107C662.314 447.302 655.797 446.9 647.258 446.9C496.294 446.893 345.33 446.9 194.367 446.919C185.822 446.919 177.345 446.272 168.938 444.976C103.865 434.925 55.312 377.519 55.2335 311.878C55.155 242.694 107.006 184.091 176.092 176.72C180.528 176.249 186.217 176.013 193.16 176.013C365.16 176 537.157 175.997 709.149 176.003C712.441 176.003 716.38 176.468 720.967 177.397C749.763 183.237 773.456 204.122 782.201 232.124C798.719 285.045 759.45 336.622 704.429 336.7C556.429 336.909 408.426 336.988 260.42 336.935C239.613 336.935 218.845 336.542 198.009 336.857Z" fill="black"/>
<path d="M184.651 286.507C183.512 287.22 182.364 287.891 181.206 288.519C160.84 299.56 163.147 329.555 185.828 335.964C186.463 336.14 186.954 336.392 187.301 336.72L111.188 336.7C110.867 336.7 110.703 336.86 110.697 337.181L110.687 337.671C105.044 320.859 105.22 302.407 110.608 285.516L183.601 285.457C183.745 285.457 183.817 285.529 183.817 285.673C183.817 285.752 183.817 285.833 183.817 285.919C183.823 286.199 183.967 286.367 184.249 286.419C184.366 286.445 184.501 286.475 184.651 286.507Z" fill="#7E5D0B" fill-opacity="0.506"/>
<path d="M192.867 285.595C218.463 287.577 228.003 317.267 207.058 332.745C205.73 333.726 202.714 335.097 198.009 336.857C194.45 337.42 190.88 337.374 187.302 336.72C186.955 336.392 186.464 336.14 185.829 335.964C163.147 329.555 160.841 299.561 181.207 288.519C182.365 287.891 183.512 287.22 184.652 286.507L192.867 285.595Z" fill="#FBBA16"/>
<path d="M731.479 505.238C732.097 505.827 732.009 506.112 732.195 506.74C736.033 519.794 736.936 533.309 734.06 546.608C733.334 549.971 732.578 553.305 731.793 556.609L656.523 556.109C678.95 547.609 682.091 519.666 660.548 507.839L661.176 507.692C661.647 507.587 661.709 507.368 661.362 507.035L660.783 506.475C660.683 506.381 660.613 506.258 660.584 506.124C660.553 505.99 660.565 505.849 660.615 505.721C660.666 505.593 660.754 505.483 660.868 505.406C660.982 505.328 661.117 505.288 661.254 505.288L731.479 505.238Z" fill="#7E5D0B" fill-opacity="0.506"/>
<path d="M645.658 505.621C651.331 505.356 656.121 505.002 660.548 507.839C682.091 519.666 678.95 547.608 656.523 556.108L646.836 556.805C616.98 552.074 616.018 511.52 645.658 505.621Z" fill="#FBBA16"/>
</svg>
